<svg width="136" height="137" viewBox="0 0 136 137" fill="none" xmlns="http://www.w3.org/2000/svg">
<path d="M116.189 19.8912C103.933 7.60197 87.0019 0 68.2984 0C30.896 0 0.569533 30.4033 0.569533 67.9107C0.569533 80.3918 3.9275 92.0826 9.7823 102.133L9.60917 101.813L0 137L35.8988 127.557C45.2437 132.76 56.3929 135.821 68.2574 135.821H68.2848C105.687 135.808 136 105.4 136 67.897C136 49.1524 128.427 32.185 116.185 19.8958L116.189 19.8912ZM68.2848 124.35H68.262C57.696 124.35 47.8044 121.426 39.3616 116.341L39.6167 116.483L37.5619 115.263L16.2613 120.869L21.943 100.041L20.6034 97.9074C15.2043 89.4009 11.9966 79.035 11.9966 67.9152C11.9966 36.749 37.1974 11.4806 68.2802 11.4806C99.3631 11.4806 124.564 36.749 124.564 67.9152C124.564 99.0815 99.3722 124.35 68.2848 124.35ZM99.158 82.0867C97.4677 81.237 89.1479 77.139 87.5988 76.568C86.0451 76.0015 84.9151 75.7228 83.7852 77.4223C82.6643 79.1172 79.4203 82.9364 78.4316 84.0694C77.4474 85.207 76.4541 85.344 74.7638 84.4989C69.5241 82.3699 65.0225 79.5329 61.1087 76.038L61.1542 76.0791C57.5138 72.6984 54.3927 68.8289 51.8731 64.562L51.7455 64.3244C50.7614 62.6295 51.6407 61.7112 52.4836 60.8661C53.2445 60.1077 54.1786 58.8833 55.0215 57.8965C55.6867 57.0788 56.2562 56.1422 56.6891 55.1372L56.7164 55.0595C56.9123 54.662 57.0262 54.2006 57.0262 53.7072C57.0262 53.1087 56.8577 52.5514 56.5661 52.0763L56.5752 52.09C56.1469 51.2402 52.7661 42.889 51.3582 39.4901C49.9822 36.1825 48.5835 36.6348 47.5492 36.5799C46.565 36.5342 45.4351 36.5251 44.3051 36.5251C42.5054 36.5708 40.9062 37.384 39.8035 38.6403L39.799 38.6495C36.1449 42.1261 33.8758 47.0281 33.8758 52.46C33.8758 52.5788 33.8758 52.7022 33.8804 52.8209V52.8027C34.4773 59.5046 36.9832 65.5213 40.8378 70.4233L40.7831 70.3548C48.0914 81.2233 57.8327 89.9171 69.2644 95.7739L69.6927 95.9704C72.1895 97.1033 75.388 98.314 78.6594 99.351L79.3383 99.5384C81.3521 100.178 83.6713 100.548 86.077 100.548C87.4575 100.548 88.8153 100.425 90.1275 100.192L89.9863 100.21C94.8569 99.1911 98.8983 96.2445 101.363 92.2196L101.404 92.142C102.156 90.4699 102.593 88.5191 102.593 86.4679C102.593 85.6227 102.521 84.7958 102.379 83.9918L102.393 84.0786C101.974 83.3705 100.844 82.9501 99.1489 82.0958L99.158 82.0867Z" fill="#5A9539"/>
</svg>
