<svg width="454" height="130" viewBox="0 0 454 130" fill="none" xmlns="http://www.w3.org/2000/svg">
<path d="M367.295 129.503C354.841 129.503 344.996 126.306 337.759 119.91C330.522 113.515 326.904 103.417 326.904 89.6172C326.904 78.0048 329.176 65.2985 333.72 51.4983C338.264 37.5298 345.669 25.4967 355.935 15.399C366.201 5.133 379.328 0 395.316 0C415.175 0 425.861 11.3599 427.376 34.0798C431.079 33.2383 434.36 31.2188 437.221 28.0211C440.082 24.6552 442.775 20.8686 445.299 16.6612H453.378C448.834 25.7492 444.795 32.9017 441.26 38.1189C437.726 43.1677 433.098 47.2909 427.376 50.4886C426.366 66.3083 423.085 80.1926 417.531 92.1416C412.145 104.091 405.077 113.347 396.326 119.91C387.574 126.306 377.897 129.503 367.295 129.503ZM377.392 106.783C383.619 106.783 389.425 101.734 394.811 91.6367C400.196 81.539 403.899 69.0852 405.918 54.2752C401.879 52.7605 399.86 48.9739 399.86 42.9153C399.86 36.3518 402.216 31.9761 406.928 29.7882C406.592 24.4028 405.666 20.7003 404.151 18.6808C402.805 16.4929 400.533 15.399 397.335 15.399C391.782 15.399 386.48 19.4381 381.431 27.5163C376.383 35.4261 372.259 45.1031 369.062 56.5472C366.032 67.823 364.518 77.7524 364.518 86.3354C364.518 94.4136 365.443 99.8832 367.295 102.744C369.146 105.437 372.512 106.783 377.392 106.783Z" fill="white"/>
<path d="M269.652 130.008C257.198 130.008 247.522 126.81 240.621 120.415C233.721 113.852 230.271 103.67 230.271 89.8696C230.271 78.2573 232.543 65.4668 237.087 51.4983C241.799 37.5298 249.204 25.4967 259.302 15.399C269.568 5.133 282.527 0 298.178 0C308.276 0 315.429 2.18784 319.636 6.56352C324.012 10.9392 326.2 16.4929 326.2 23.2247C326.2 29.1151 324.937 33.659 322.413 36.8567C319.888 40.0543 316.691 41.6531 312.82 41.6531C309.959 41.6531 307.014 40.6433 303.985 38.6238C306.004 33.07 307.014 28.1053 307.014 23.7296C307.014 20.532 306.425 18.0076 305.247 16.1563C304.069 14.3051 302.302 13.3795 299.945 13.3795C294.897 13.3795 289.848 17.5027 284.799 25.7492C279.75 33.9956 275.627 44.0092 272.429 55.7898C269.232 67.5705 267.633 78.1731 267.633 87.5976C267.633 95.8441 269.063 101.482 271.924 104.511C274.785 107.372 279.413 108.803 285.809 108.803C294.897 108.803 302.638 106.699 309.033 102.492C315.597 98.2844 322.749 91.8892 330.491 83.3061H339.074C320.393 114.441 297.253 130.008 269.652 130.008Z" fill="white"/>
<path d="M172.768 130.008C160.314 130.008 150.637 126.81 143.737 120.415C136.837 113.852 133.387 103.67 133.387 89.8696C133.387 78.2573 135.659 65.4668 140.203 51.4983C144.747 37.5298 152.152 25.4967 162.418 15.399C172.684 5.133 185.727 0 201.546 0C220.059 0 229.315 8.07817 229.315 24.2345C229.315 33.659 226.622 42.3262 221.237 50.2361C215.852 58.146 208.699 64.5412 199.779 69.4218C190.86 74.134 181.351 76.8268 171.253 77.4999C170.917 82.5488 170.748 85.9147 170.748 87.5976C170.748 95.8441 172.179 101.482 175.04 104.511C177.901 107.372 182.529 108.803 188.924 108.803C198.012 108.803 205.754 106.699 212.149 102.492C218.713 98.2844 225.865 91.8892 233.607 83.3061H242.19C223.509 114.441 200.368 130.008 172.768 130.008ZM173.273 65.3827C179.5 65.0461 185.39 62.8582 190.944 58.8192C196.666 54.7801 201.21 49.6471 204.576 43.4202C208.11 37.1932 209.877 30.6297 209.877 23.7296C209.877 16.8295 207.773 13.3795 203.566 13.3795C197.507 13.3795 191.533 18.6808 185.643 29.2834C179.921 39.886 175.797 51.9191 173.273 65.3827Z" fill="white"/>
<path d="M34.0839 130.008C24.4911 130.008 16.4971 126.726 10.1019 120.163C3.70664 113.599 0.509033 103.333 0.509033 89.3647C0.509033 76.9109 2.94931 63.868 7.82987 50.2361C12.8787 36.4359 20.2837 24.8235 30.0448 15.399C39.9743 5.80617 51.7549 1.00977 65.3868 1.00977C72.2869 1.00977 77.4199 2.18783 80.7858 4.54396C84.1517 6.90009 85.8347 10.0136 85.8347 13.8843V15.6514L88.6116 2.27198H124.963L106.787 88.1025C106.114 90.6269 105.778 93.3197 105.778 96.1807C105.778 103.417 109.228 107.036 116.128 107.036C120.84 107.036 124.879 104.848 128.245 100.472C131.779 96.0965 134.556 90.3745 136.576 83.3061H147.178C140.951 101.482 133.21 113.852 123.954 120.415C114.866 126.81 105.694 130.008 96.4373 130.008C89.3689 130.008 83.6469 128.073 79.2712 124.202C75.0638 120.163 72.5394 114.357 71.6979 106.783C66.8173 113.683 61.3477 119.321 55.2891 123.697C49.3988 127.904 42.3304 130.008 34.0839 130.008ZM50.4927 105.521C54.7001 105.521 58.8233 103.586 62.8624 99.7149C67.0698 95.6758 69.9308 90.2062 71.4454 83.3061L83.5627 26.254C83.5627 24.0662 82.7212 21.9625 81.0383 19.943C79.3553 17.7551 76.7467 16.6612 73.2125 16.6612C66.4807 16.6612 60.4221 20.6161 55.0367 28.526C49.6512 36.2676 45.4438 45.6921 42.4145 56.7996C39.3852 67.7388 37.8706 77.4158 37.8706 85.8305C37.8706 94.2453 39.0486 99.6307 41.4048 101.987C43.9292 104.343 46.9585 105.521 50.4927 105.521Z" fill="white"/>
</svg>
