<svg width="80" height="80" viewBox="0 0 80 80" fill="none" xmlns="http://www.w3.org/2000/svg">
<path d="M56.7883 0H23.2516C8.68433 0 0 8.68 0 23.24V56.72C0 71.32 8.68433 80 23.2516 80H56.7483C71.3155 80 79.9999 71.32 79.9999 56.76V23.24C80.0399 8.68 71.3556 0 56.7883 0ZM47.7038 56.52H28.014C26.3731 56.52 25.0125 55.16 25.0125 53.52C25.0125 51.88 26.3731 50.52 28.014 50.52H47.7038C52.8263 50.52 57.0284 46.36 57.0284 41.2C57.0284 36.04 52.8663 31.88 47.7038 31.88H27.4137L28.4542 32.92C29.6148 34.12 29.6148 36 28.4142 37.2C27.8139 37.8 27.0535 38.08 26.2931 38.08C25.5327 38.08 24.7723 37.8 24.172 37.2L17.8889 30.88C16.7283 29.72 16.7283 27.8 17.8889 26.64L24.172 20.36C25.3326 19.2 27.2536 19.2 28.4142 20.36C29.5747 21.52 29.5747 23.44 28.4142 24.6L27.0935 25.92H47.7038C56.148 25.92 63.0314 32.8 63.0314 41.24C63.0314 49.68 56.148 56.52 47.7038 56.52Z" fill="#0A8748"/>
</svg>
