<svg width="635" height="635" viewBox="0 0 635 635" fill="none" xmlns="http://www.w3.org/2000/svg">
<g clip-path="url(#clip0_1_3137)">
<path d="M635 0H0V635H635V0Z" fill="white"/>
<path d="M211.667 38.4848H192.424V57.7273H211.667V38.4848Z" fill="black"/>
<path d="M230.909 38.4848H211.667V57.7273H230.909V38.4848Z" fill="black"/>
<path d="M250.152 38.4848H230.909V57.7273H250.152V38.4848Z" fill="black"/>
<path d="M346.364 38.4848H327.121V57.7273H346.364V38.4848Z" fill="black"/>
<path d="M365.606 38.4848H346.364V57.7273H365.606V38.4848Z" fill="black"/>
<path d="M384.848 38.4848H365.606V57.7273H384.848V38.4848Z" fill="black"/>
<path d="M250.152 57.7273H230.909V76.9697H250.152V57.7273Z" fill="black"/>
<path d="M269.394 57.7273H250.151V76.9697H269.394V57.7273Z" fill="black"/>
<path d="M288.636 57.7273H269.394V76.9697H288.636V57.7273Z" fill="black"/>
<path d="M307.879 57.7273H288.636V76.9697H307.879V57.7273Z" fill="black"/>
<path d="M327.121 57.7273H307.879V76.9697H327.121V57.7273Z" fill="black"/>
<path d="M365.606 57.7273H346.364V76.9697H365.606V57.7273Z" fill="black"/>
<path d="M384.848 57.7273H365.606V76.9697H384.848V57.7273Z" fill="black"/>
<path d="M442.576 57.7273H423.333V76.9697H442.576V57.7273Z" fill="black"/>
<path d="M211.667 76.9697H192.424V96.2121H211.667V76.9697Z" fill="black"/>
<path d="M250.152 76.9697H230.909V96.2121H250.152V76.9697Z" fill="black"/>
<path d="M269.394 76.9697H250.151V96.2121H269.394V76.9697Z" fill="black"/>
<path d="M327.121 76.9697H307.879V96.2121H327.121V76.9697Z" fill="black"/>
<path d="M346.364 76.9697H327.121V96.2121H346.364V76.9697Z" fill="black"/>
<path d="M365.606 76.9697H346.364V96.2121H365.606V76.9697Z" fill="black"/>
<path d="M384.848 76.9697H365.606V96.2121H384.848V76.9697Z" fill="black"/>
<path d="M442.576 76.9697H423.333V96.2121H442.576V76.9697Z" fill="black"/>
<path d="M230.909 96.2121H211.667V115.455H230.909V96.2121Z" fill="black"/>
<path d="M250.152 96.2121H230.909V115.455H250.152V96.2121Z" fill="black"/>
<path d="M288.636 96.2121H269.394V115.455H288.636V96.2121Z" fill="black"/>
<path d="M327.121 96.2121H307.879V115.455H327.121V96.2121Z" fill="black"/>
<path d="M384.848 96.2121H365.606V115.455H384.848V96.2121Z" fill="black"/>
<path d="M423.333 96.2121H404.091V115.455H423.333V96.2121Z" fill="black"/>
<path d="M230.909 115.455H211.667V134.697H230.909V115.455Z" fill="black"/>
<path d="M250.152 115.455H230.909V134.697H250.152V115.455Z" fill="black"/>
<path d="M269.394 115.455H250.151V134.697H269.394V115.455Z" fill="black"/>
<path d="M307.879 115.455H288.636V134.697H307.879V115.455Z" fill="black"/>
<path d="M327.121 115.455H307.879V134.697H327.121V115.455Z" fill="black"/>
<path d="M346.364 115.455H327.121V134.697H346.364V115.455Z" fill="black"/>
<path d="M404.091 115.455H384.849V134.697H404.091V115.455Z" fill="black"/>
<path d="M211.667 134.697H192.424V153.939H211.667V134.697Z" fill="black"/>
<path d="M250.152 134.697H230.909V153.939H250.152V134.697Z" fill="black"/>
<path d="M269.394 134.697H250.151V153.939H269.394V134.697Z" fill="black"/>
<path d="M288.636 134.697H269.394V153.939H288.636V134.697Z" fill="black"/>
<path d="M346.364 134.697H327.121V153.939H346.364V134.697Z" fill="black"/>
<path d="M384.848 134.697H365.606V153.939H384.848V134.697Z" fill="black"/>
<path d="M404.091 134.697H384.849V153.939H404.091V134.697Z" fill="black"/>
<path d="M211.667 153.939H192.424V173.182H211.667V153.939Z" fill="black"/>
<path d="M250.152 153.939H230.909V173.182H250.152V153.939Z" fill="black"/>
<path d="M288.636 153.939H269.394V173.182H288.636V153.939Z" fill="black"/>
<path d="M327.121 153.939H307.879V173.182H327.121V153.939Z" fill="black"/>
<path d="M365.606 153.939H346.364V173.182H365.606V153.939Z" fill="black"/>
<path d="M404.091 153.939H384.849V173.182H404.091V153.939Z" fill="black"/>
<path d="M442.576 153.939H423.333V173.182H442.576V153.939Z" fill="black"/>
<path d="M230.909 173.182H211.667V192.424H230.909V173.182Z" fill="black"/>
<path d="M269.394 173.182H250.151V192.424H269.394V173.182Z" fill="black"/>
<path d="M288.636 173.182H269.394V192.424H288.636V173.182Z" fill="black"/>
<path d="M327.121 173.182H307.879V192.424H327.121V173.182Z" fill="black"/>
<path d="M346.364 173.182H327.121V192.424H346.364V173.182Z" fill="black"/>
<path d="M365.606 173.182H346.364V192.424H365.606V173.182Z" fill="black"/>
<path d="M423.333 173.182H404.091V192.424H423.333V173.182Z" fill="black"/>
<path d="M442.576 173.182H423.333V192.424H442.576V173.182Z" fill="black"/>
<path d="M57.7273 192.424H38.4849V211.667H57.7273V192.424Z" fill="black"/>
<path d="M96.2122 192.424H76.9697V211.667H96.2122V192.424Z" fill="black"/>
<path d="M173.182 192.424H153.939V211.667H173.182V192.424Z" fill="black"/>
<path d="M192.424 192.424H173.182V211.667H192.424V192.424Z" fill="black"/>
<path d="M307.879 192.424H288.636V211.667H307.879V192.424Z" fill="black"/>
<path d="M327.121 192.424H307.879V211.667H327.121V192.424Z" fill="black"/>
<path d="M442.576 192.424H423.333V211.667H442.576V192.424Z" fill="black"/>
<path d="M500.303 192.424H481.061V211.667H500.303V192.424Z" fill="black"/>
<path d="M558.031 192.424H538.788V211.667H558.031V192.424Z" fill="black"/>
<path d="M596.515 192.424H577.273V211.667H596.515V192.424Z" fill="black"/>
<path d="M57.7273 211.667H38.4849V230.909H57.7273V211.667Z" fill="black"/>
<path d="M76.9695 211.667H57.7271V230.909H76.9695V211.667Z" fill="black"/>
<path d="M96.2122 211.667H76.9697V230.909H96.2122V211.667Z" fill="black"/>
<path d="M115.454 211.667H96.2119V230.909H115.454V211.667Z" fill="black"/>
<path d="M153.939 211.667H134.697V230.909H153.939V211.667Z" fill="black"/>
<path d="M192.424 211.667H173.182V230.909H192.424V211.667Z" fill="black"/>
<path d="M230.909 211.667H211.667V230.909H230.909V211.667Z" fill="black"/>
<path d="M307.879 211.667H288.636V230.909H307.879V211.667Z" fill="black"/>
<path d="M327.121 211.667H307.879V230.909H327.121V211.667Z" fill="black"/>
<path d="M423.333 211.667H404.091V230.909H423.333V211.667Z" fill="black"/>
<path d="M442.576 211.667H423.333V230.909H442.576V211.667Z" fill="black"/>
<path d="M481.061 211.667H461.818V230.909H481.061V211.667Z" fill="black"/>
<path d="M500.303 211.667H481.061V230.909H500.303V211.667Z" fill="black"/>
<path d="M577.273 211.667H558.03V230.909H577.273V211.667Z" fill="black"/>
<path d="M596.515 211.667H577.273V230.909H596.515V211.667Z" fill="black"/>
<path d="M76.9695 230.909H57.7271V250.152H76.9695V230.909Z" fill="black"/>
<path d="M96.2122 230.909H76.9697V250.152H96.2122V230.909Z" fill="black"/>
<path d="M115.454 230.909H96.2119V250.152H115.454V230.909Z" fill="black"/>
<path d="M134.697 230.909H115.455V250.152H134.697V230.909Z" fill="black"/>
<path d="M173.182 230.909H153.939V250.152H173.182V230.909Z" fill="black"/>
<path d="M192.424 230.909H173.182V250.152H192.424V230.909Z" fill="black"/>
<path d="M269.394 230.909H250.151V250.152H269.394V230.909Z" fill="black"/>
<path d="M288.636 230.909H269.394V250.152H288.636V230.909Z" fill="black"/>
<path d="M346.364 230.909H327.121V250.152H346.364V230.909Z" fill="black"/>
<path d="M404.091 230.909H384.849V250.152H404.091V230.909Z" fill="black"/>
<path d="M423.333 230.909H404.091V250.152H423.333V230.909Z" fill="black"/>
<path d="M500.303 230.909H481.061V250.152H500.303V230.909Z" fill="black"/>
<path d="M538.788 230.909H519.545V250.152H538.788V230.909Z" fill="black"/>
<path d="M558.031 230.909H538.788V250.152H558.031V230.909Z" fill="black"/>
<path d="M596.515 230.909H577.273V250.152H596.515V230.909Z" fill="black"/>
<path d="M57.7273 250.152H38.4849V269.394H57.7273V250.152Z" fill="black"/>
<path d="M134.697 250.152H115.455V269.394H134.697V250.152Z" fill="black"/>
<path d="M192.424 250.152H173.182V269.394H192.424V250.152Z" fill="black"/>
<path d="M211.667 250.152H192.424V269.394H211.667V250.152Z" fill="black"/>
<path d="M230.909 250.152H211.667V269.394H230.909V250.152Z" fill="black"/>
<path d="M250.152 250.152H230.909V269.394H250.152V250.152Z" fill="black"/>
<path d="M269.394 250.152H250.151V269.394H269.394V250.152Z" fill="black"/>
<path d="M288.636 250.152H269.394V269.394H288.636V250.152Z" fill="black"/>
<path d="M307.879 250.152H288.636V269.394H307.879V250.152Z" fill="black"/>
<path d="M404.091 250.152H384.849V269.394H404.091V250.152Z" fill="black"/>
<path d="M461.818 250.152H442.576V269.394H461.818V250.152Z" fill="black"/>
<path d="M500.303 250.152H481.061V269.394H500.303V250.152Z" fill="black"/>
<path d="M519.546 250.152H500.303V269.394H519.546V250.152Z" fill="black"/>
<path d="M538.788 250.152H519.545V269.394H538.788V250.152Z" fill="black"/>
<path d="M134.697 269.394H115.455V288.636H134.697V269.394Z" fill="black"/>
<path d="M153.939 269.394H134.697V288.636H153.939V269.394Z" fill="black"/>
<path d="M173.182 269.394H153.939V288.636H173.182V269.394Z" fill="black"/>
<path d="M192.424 269.394H173.182V288.636H192.424V269.394Z" fill="black"/>
<path d="M230.909 269.394H211.667V288.636H230.909V269.394Z" fill="black"/>
<path d="M250.152 269.394H230.909V288.636H250.152V269.394Z" fill="black"/>
<path d="M307.879 269.394H288.636V288.636H307.879V269.394Z" fill="black"/>
<path d="M346.364 269.394H327.121V288.636H346.364V269.394Z" fill="black"/>
<path d="M365.606 269.394H346.364V288.636H365.606V269.394Z" fill="black"/>
<path d="M442.576 269.394H423.333V288.636H442.576V269.394Z" fill="black"/>
<path d="M481.061 269.394H461.818V288.636H481.061V269.394Z" fill="black"/>
<path d="M500.303 269.394H481.061V288.636H500.303V269.394Z" fill="black"/>
<path d="M596.515 269.394H577.273V288.636H596.515V269.394Z" fill="black"/>
<path d="M115.454 288.636H96.2119V307.879H115.454V288.636Z" fill="black"/>
<path d="M134.697 288.636H115.455V307.879H134.697V288.636Z" fill="black"/>
<path d="M230.909 288.636H211.667V307.879H230.909V288.636Z" fill="black"/>
<path d="M269.394 288.636H250.151V307.879H269.394V288.636Z" fill="black"/>
<path d="M365.606 288.636H346.364V307.879H365.606V288.636Z" fill="black"/>
<path d="M384.848 288.636H365.606V307.879H384.848V288.636Z" fill="black"/>
<path d="M423.333 288.636H404.091V307.879H423.333V288.636Z" fill="black"/>
<path d="M442.576 288.636H423.333V307.879H442.576V288.636Z" fill="black"/>
<path d="M481.061 288.636H461.818V307.879H481.061V288.636Z" fill="black"/>
<path d="M577.273 288.636H558.03V307.879H577.273V288.636Z" fill="black"/>
<path d="M596.515 288.636H577.273V307.879H596.515V288.636Z" fill="black"/>
<path d="M57.7273 307.879H38.4849V327.121H57.7273V307.879Z" fill="black"/>
<path d="M76.9695 307.879H57.7271V327.121H76.9695V307.879Z" fill="black"/>
<path d="M134.697 307.879H115.455V327.121H134.697V307.879Z" fill="black"/>
<path d="M173.182 307.879H153.939V327.121H173.182V307.879Z" fill="black"/>
<path d="M230.909 307.879H211.667V327.121H230.909V307.879Z" fill="black"/>
<path d="M288.636 307.879H269.394V327.121H288.636V307.879Z" fill="black"/>
<path d="M307.879 307.879H288.636V327.121H307.879V307.879Z" fill="black"/>
<path d="M327.121 307.879H307.879V327.121H327.121V307.879Z" fill="black"/>
<path d="M365.606 307.879H346.364V327.121H365.606V307.879Z" fill="black"/>
<path d="M423.333 307.879H404.091V327.121H423.333V307.879Z" fill="black"/>
<path d="M442.576 307.879H423.333V327.121H442.576V307.879Z" fill="black"/>
<path d="M481.061 307.879H461.818V327.121H481.061V307.879Z" fill="black"/>
<path d="M596.515 307.879H577.273V327.121H596.515V307.879Z" fill="black"/>
<path d="M115.454 327.121H96.2119V346.364H115.454V327.121Z" fill="black"/>
<path d="M153.939 327.121H134.697V346.364H153.939V327.121Z" fill="black"/>
<path d="M211.667 327.121H192.424V346.364H211.667V327.121Z" fill="black"/>
<path d="M327.121 327.121H307.879V346.364H327.121V327.121Z" fill="black"/>
<path d="M346.364 327.121H327.121V346.364H346.364V327.121Z" fill="black"/>
<path d="M365.606 327.121H346.364V346.364H365.606V327.121Z" fill="black"/>
<path d="M404.091 327.121H384.849V346.364H404.091V327.121Z" fill="black"/>
<path d="M442.576 327.121H423.333V346.364H442.576V327.121Z" fill="black"/>
<path d="M461.818 327.121H442.576V346.364H461.818V327.121Z" fill="black"/>
<path d="M500.303 327.121H481.061V346.364H500.303V327.121Z" fill="black"/>
<path d="M57.7273 346.364H38.4849V365.606H57.7273V346.364Z" fill="black"/>
<path d="M76.9695 346.364H57.7271V365.606H76.9695V346.364Z" fill="black"/>
<path d="M96.2122 346.364H76.9697V365.606H96.2122V346.364Z" fill="black"/>
<path d="M134.697 346.364H115.455V365.606H134.697V346.364Z" fill="black"/>
<path d="M153.939 346.364H134.697V365.606H153.939V346.364Z" fill="black"/>
<path d="M173.182 346.364H153.939V365.606H173.182V346.364Z" fill="black"/>
<path d="M192.424 346.364H173.182V365.606H192.424V346.364Z" fill="black"/>
<path d="M230.909 346.364H211.667V365.606H230.909V346.364Z" fill="black"/>
<path d="M250.152 346.364H230.909V365.606H250.152V346.364Z" fill="black"/>
<path d="M269.394 346.364H250.151V365.606H269.394V346.364Z" fill="black"/>
<path d="M288.636 346.364H269.394V365.606H288.636V346.364Z" fill="black"/>
<path d="M307.879 346.364H288.636V365.606H307.879V346.364Z" fill="black"/>
<path d="M327.121 346.364H307.879V365.606H327.121V346.364Z" fill="black"/>
<path d="M365.606 346.364H346.364V365.606H365.606V346.364Z" fill="black"/>
<path d="M442.576 346.364H423.333V365.606H442.576V346.364Z" fill="black"/>
<path d="M481.061 346.364H461.818V365.606H481.061V346.364Z" fill="black"/>
<path d="M596.515 346.364H577.273V365.606H596.515V346.364Z" fill="black"/>
<path d="M76.9695 365.606H57.7271V384.848H76.9695V365.606Z" fill="black"/>
<path d="M134.697 365.606H115.455V384.848H134.697V365.606Z" fill="black"/>
<path d="M192.424 365.606H173.182V384.848H192.424V365.606Z" fill="black"/>
<path d="M211.667 365.606H192.424V384.848H211.667V365.606Z" fill="black"/>
<path d="M230.909 365.606H211.667V384.848H230.909V365.606Z" fill="black"/>
<path d="M269.394 365.606H250.151V384.848H269.394V365.606Z" fill="black"/>
<path d="M307.879 365.606H288.636V384.848H307.879V365.606Z" fill="black"/>
<path d="M327.121 365.606H307.879V384.848H327.121V365.606Z" fill="black"/>
<path d="M384.848 365.606H365.606V384.848H384.848V365.606Z" fill="black"/>
<path d="M423.333 365.606H404.091V384.848H423.333V365.606Z" fill="black"/>
<path d="M442.576 365.606H423.333V384.848H442.576V365.606Z" fill="black"/>
<path d="M481.061 365.606H461.818V384.848H481.061V365.606Z" fill="black"/>
<path d="M500.303 365.606H481.061V384.848H500.303V365.606Z" fill="black"/>
<path d="M558.031 365.606H538.788V384.848H558.031V365.606Z" fill="black"/>
<path d="M577.273 365.606H558.03V384.848H577.273V365.606Z" fill="black"/>
<path d="M596.515 365.606H577.273V384.848H596.515V365.606Z" fill="black"/>
<path d="M57.7273 384.848H38.4849V404.091H57.7273V384.848Z" fill="black"/>
<path d="M76.9695 384.848H57.7271V404.091H76.9695V384.848Z" fill="black"/>
<path d="M134.697 384.848H115.455V404.091H134.697V384.848Z" fill="black"/>
<path d="M153.939 384.848H134.697V404.091H153.939V384.848Z" fill="black"/>
<path d="M173.182 384.848H153.939V404.091H173.182V384.848Z" fill="black"/>
<path d="M192.424 384.848H173.182V404.091H192.424V384.848Z" fill="black"/>
<path d="M230.909 384.848H211.667V404.091H230.909V384.848Z" fill="black"/>
<path d="M250.152 384.848H230.909V404.091H250.152V384.848Z" fill="black"/>
<path d="M269.394 384.848H250.151V404.091H269.394V384.848Z" fill="black"/>
<path d="M346.364 384.848H327.121V404.091H346.364V384.848Z" fill="black"/>
<path d="M365.606 384.848H346.364V404.091H365.606V384.848Z" fill="black"/>
<path d="M384.848 384.848H365.606V404.091H384.848V384.848Z" fill="black"/>
<path d="M423.333 384.848H404.091V404.091H423.333V384.848Z" fill="black"/>
<path d="M538.788 384.848H519.545V404.091H538.788V384.848Z" fill="black"/>
<path d="M596.515 384.848H577.273V404.091H596.515V384.848Z" fill="black"/>
<path d="M134.697 404.091H115.455V423.333H134.697V404.091Z" fill="black"/>
<path d="M153.939 404.091H134.697V423.333H153.939V404.091Z" fill="black"/>
<path d="M230.909 404.091H211.667V423.333H230.909V404.091Z" fill="black"/>
<path d="M250.152 404.091H230.909V423.333H250.152V404.091Z" fill="black"/>
<path d="M288.636 404.091H269.394V423.333H288.636V404.091Z" fill="black"/>
<path d="M307.879 404.091H288.636V423.333H307.879V404.091Z" fill="black"/>
<path d="M365.606 404.091H346.364V423.333H365.606V404.091Z" fill="black"/>
<path d="M404.091 404.091H384.849V423.333H404.091V404.091Z" fill="black"/>
<path d="M461.818 404.091H442.576V423.333H461.818V404.091Z" fill="black"/>
<path d="M500.303 404.091H481.061V423.333H500.303V404.091Z" fill="black"/>
<path d="M57.7273 423.333H38.4849V442.576H57.7273V423.333Z" fill="black"/>
<path d="M76.9695 423.333H57.7271V442.576H76.9695V423.333Z" fill="black"/>
<path d="M115.454 423.333H96.2119V442.576H115.454V423.333Z" fill="black"/>
<path d="M134.697 423.333H115.455V442.576H134.697V423.333Z" fill="black"/>
<path d="M173.182 423.333H153.939V442.576H173.182V423.333Z" fill="black"/>
<path d="M192.424 423.333H173.182V442.576H192.424V423.333Z" fill="black"/>
<path d="M250.152 423.333H230.909V442.576H250.152V423.333Z" fill="black"/>
<path d="M269.394 423.333H250.151V442.576H269.394V423.333Z" fill="black"/>
<path d="M307.879 423.333H288.636V442.576H307.879V423.333Z" fill="black"/>
<path d="M346.364 423.333H327.121V442.576H346.364V423.333Z" fill="black"/>
<path d="M404.091 423.333H384.849V442.576H404.091V423.333Z" fill="black"/>
<path d="M442.576 423.333H423.333V442.576H442.576V423.333Z" fill="black"/>
<path d="M461.818 423.333H442.576V442.576H461.818V423.333Z" fill="black"/>
<path d="M481.061 423.333H461.818V442.576H481.061V423.333Z" fill="black"/>
<path d="M500.303 423.333H481.061V442.576H500.303V423.333Z" fill="black"/>
<path d="M519.546 423.333H500.303V442.576H519.546V423.333Z" fill="black"/>
<path d="M538.788 423.333H519.545V442.576H538.788V423.333Z" fill="black"/>
<path d="M577.273 423.333H558.03V442.576H577.273V423.333Z" fill="black"/>
<path d="M211.667 442.576H192.424V461.818H211.667V442.576Z" fill="black"/>
<path d="M230.909 442.576H211.667V461.818H230.909V442.576Z" fill="black"/>
<path d="M250.152 442.576H230.909V461.818H250.152V442.576Z" fill="black"/>
<path d="M269.394 442.576H250.151V461.818H269.394V442.576Z" fill="black"/>
<path d="M288.636 442.576H269.394V461.818H288.636V442.576Z" fill="black"/>
<path d="M346.364 442.576H327.121V461.818H346.364V442.576Z" fill="black"/>
<path d="M384.848 442.576H365.606V461.818H384.848V442.576Z" fill="black"/>
<path d="M423.333 442.576H404.091V461.818H423.333V442.576Z" fill="black"/>
<path d="M442.576 442.576H423.333V461.818H442.576V442.576Z" fill="black"/>
<path d="M519.546 442.576H500.303V461.818H519.546V442.576Z" fill="black"/>
<path d="M538.788 442.576H519.545V461.818H538.788V442.576Z" fill="black"/>
<path d="M558.031 442.576H538.788V461.818H558.031V442.576Z" fill="black"/>
<path d="M596.515 442.576H577.273V461.818H596.515V442.576Z" fill="black"/>
<path d="M211.667 461.818H192.424V481.061H211.667V461.818Z" fill="black"/>
<path d="M230.909 461.818H211.667V481.061H230.909V461.818Z" fill="black"/>
<path d="M250.152 461.818H230.909V481.061H250.152V461.818Z" fill="black"/>
<path d="M269.394 461.818H250.151V481.061H269.394V461.818Z" fill="black"/>
<path d="M288.636 461.818H269.394V481.061H288.636V461.818Z" fill="black"/>
<path d="M307.879 461.818H288.636V481.061H307.879V461.818Z" fill="black"/>
<path d="M327.121 461.818H307.879V481.061H327.121V461.818Z" fill="black"/>
<path d="M346.364 461.818H327.121V481.061H346.364V461.818Z" fill="black"/>
<path d="M442.576 461.818H423.333V481.061H442.576V461.818Z" fill="black"/>
<path d="M481.061 461.818H461.818V481.061H481.061V461.818Z" fill="black"/>
<path d="M519.546 461.818H500.303V481.061H519.546V461.818Z" fill="black"/>
<path d="M596.515 461.818H577.273V481.061H596.515V461.818Z" fill="black"/>
<path d="M250.152 481.061H230.909V500.303H250.152V481.061Z" fill="black"/>
<path d="M269.394 481.061H250.151V500.303H269.394V481.061Z" fill="black"/>
<path d="M288.636 481.061H269.394V500.303H288.636V481.061Z" fill="black"/>
<path d="M327.121 481.061H307.879V500.303H327.121V481.061Z" fill="black"/>
<path d="M346.364 481.061H327.121V500.303H346.364V481.061Z" fill="black"/>
<path d="M404.091 481.061H384.849V500.303H404.091V481.061Z" fill="black"/>
<path d="M423.333 481.061H404.091V500.303H423.333V481.061Z" fill="black"/>
<path d="M442.576 481.061H423.333V500.303H442.576V481.061Z" fill="black"/>
<path d="M519.546 481.061H500.303V500.303H519.546V481.061Z" fill="black"/>
<path d="M230.909 500.303H211.667V519.545H230.909V500.303Z" fill="black"/>
<path d="M250.152 500.303H230.909V519.545H250.152V500.303Z" fill="black"/>
<path d="M269.394 500.303H250.151V519.545H269.394V500.303Z" fill="black"/>
<path d="M288.636 500.303H269.394V519.545H288.636V500.303Z" fill="black"/>
<path d="M307.879 500.303H288.636V519.545H307.879V500.303Z" fill="black"/>
<path d="M327.121 500.303H307.879V519.545H327.121V500.303Z" fill="black"/>
<path d="M346.364 500.303H327.121V519.545H346.364V500.303Z" fill="black"/>
<path d="M404.091 500.303H384.849V519.545H404.091V500.303Z" fill="black"/>
<path d="M423.333 500.303H404.091V519.545H423.333V500.303Z" fill="black"/>
<path d="M442.576 500.303H423.333V519.545H442.576V500.303Z" fill="black"/>
<path d="M461.818 500.303H442.576V519.545H461.818V500.303Z" fill="black"/>
<path d="M481.061 500.303H461.818V519.545H481.061V500.303Z" fill="black"/>
<path d="M500.303 500.303H481.061V519.545H500.303V500.303Z" fill="black"/>
<path d="M519.546 500.303H500.303V519.545H519.546V500.303Z" fill="black"/>
<path d="M538.788 500.303H519.545V519.545H538.788V500.303Z" fill="black"/>
<path d="M577.273 500.303H558.03V519.545H577.273V500.303Z" fill="black"/>
<path d="M596.515 500.303H577.273V519.545H596.515V500.303Z" fill="black"/>
<path d="M230.909 519.545H211.667V538.788H230.909V519.545Z" fill="black"/>
<path d="M250.152 519.545H230.909V538.788H250.152V519.545Z" fill="black"/>
<path d="M269.394 519.545H250.151V538.788H269.394V519.545Z" fill="black"/>
<path d="M288.636 519.545H269.394V538.788H288.636V519.545Z" fill="black"/>
<path d="M307.879 519.545H288.636V538.788H307.879V519.545Z" fill="black"/>
<path d="M327.121 519.545H307.879V538.788H327.121V519.545Z" fill="black"/>
<path d="M346.364 519.545H327.121V538.788H346.364V519.545Z" fill="black"/>
<path d="M404.091 519.545H384.849V538.788H404.091V519.545Z" fill="black"/>
<path d="M442.576 519.545H423.333V538.788H442.576V519.545Z" fill="black"/>
<path d="M461.818 519.545H442.576V538.788H461.818V519.545Z" fill="black"/>
<path d="M500.303 519.545H481.061V538.788H500.303V519.545Z" fill="black"/>
<path d="M519.546 519.545H500.303V538.788H519.546V519.545Z" fill="black"/>
<path d="M538.788 519.545H519.545V538.788H538.788V519.545Z" fill="black"/>
<path d="M558.031 519.545H538.788V538.788H558.031V519.545Z" fill="black"/>
<path d="M596.515 519.545H577.273V538.788H596.515V519.545Z" fill="black"/>
<path d="M211.667 538.788H192.424V558.03H211.667V538.788Z" fill="black"/>
<path d="M230.909 538.788H211.667V558.03H230.909V538.788Z" fill="black"/>
<path d="M250.152 538.788H230.909V558.03H250.152V538.788Z" fill="black"/>
<path d="M346.364 538.788H327.121V558.03H346.364V538.788Z" fill="black"/>
<path d="M404.091 538.788H384.849V558.03H404.091V538.788Z" fill="black"/>
<path d="M423.333 538.788H404.091V558.03H423.333V538.788Z" fill="black"/>
<path d="M442.576 538.788H423.333V558.03H442.576V538.788Z" fill="black"/>
<path d="M461.818 538.788H442.576V558.03H461.818V538.788Z" fill="black"/>
<path d="M519.546 538.788H500.303V558.03H519.546V538.788Z" fill="black"/>
<path d="M577.273 538.788H558.03V558.03H577.273V538.788Z" fill="black"/>
<path d="M596.515 538.788H577.273V558.03H596.515V538.788Z" fill="black"/>
<path d="M230.909 558.03H211.667V577.273H230.909V558.03Z" fill="black"/>
<path d="M269.394 558.03H250.151V577.273H269.394V558.03Z" fill="black"/>
<path d="M288.636 558.03H269.394V577.273H288.636V558.03Z" fill="black"/>
<path d="M327.121 558.03H307.879V577.273H327.121V558.03Z" fill="black"/>
<path d="M365.606 558.03H346.364V577.273H365.606V558.03Z" fill="black"/>
<path d="M423.333 558.03H404.091V577.273H423.333V558.03Z" fill="black"/>
<path d="M442.576 558.03H423.333V577.273H442.576V558.03Z" fill="black"/>
<path d="M461.818 558.03H442.576V577.273H461.818V558.03Z" fill="black"/>
<path d="M481.061 558.03H461.818V577.273H481.061V558.03Z" fill="black"/>
<path d="M500.303 558.03H481.061V577.273H500.303V558.03Z" fill="black"/>
<path d="M519.546 558.03H500.303V577.273H519.546V558.03Z" fill="black"/>
<path d="M538.788 558.03H519.545V577.273H538.788V558.03Z" fill="black"/>
<path d="M211.667 577.273H192.424V596.515H211.667V577.273Z" fill="black"/>
<path d="M230.909 577.273H211.667V596.515H230.909V577.273Z" fill="black"/>
<path d="M250.152 577.273H230.909V596.515H250.152V577.273Z" fill="black"/>
<path d="M288.636 577.273H269.394V596.515H288.636V577.273Z" fill="black"/>
<path d="M327.121 577.273H307.879V596.515H327.121V577.273Z" fill="black"/>
<path d="M346.364 577.273H327.121V596.515H346.364V577.273Z" fill="black"/>
<path d="M404.091 577.273H384.849V596.515H404.091V577.273Z" fill="black"/>
<path d="M442.576 577.273H423.333V596.515H442.576V577.273Z" fill="black"/>
<path d="M519.546 577.273H500.303V596.515H519.546V577.273Z" fill="black"/>
<path d="M596.515 577.273H577.273V596.515H596.515V577.273Z" fill="black"/>
<path d="M152.977 38.4848H58.6894H38.4849V58.6894V152.977V173.182H58.6894H152.977H173.182V152.977V58.6894V38.4848H152.977ZM152.977 152.977H58.6894V58.6894H152.977V152.977Z" fill="black"/>
<path d="M576.311 38.4848H482.023H461.818V58.6894V152.977V173.182H482.023H576.311H596.515V152.977V58.6894V38.4848H576.311ZM576.311 152.977H482.023V58.6894H576.311V152.977Z" fill="black"/>
<path d="M152.977 461.818H58.6894H38.4849V482.023V576.311V596.515H58.6894H152.977H173.182V576.311V482.023V461.818H152.977ZM152.977 576.311H58.6894V482.023H152.977V576.311Z" fill="black"/>
<path d="M134.697 76.9697H76.9697V134.697H134.697V76.9697Z" fill="black"/>
<path d="M558.03 76.9697H500.303V134.697H558.03V76.9697Z" fill="black"/>
<path d="M134.697 500.303H76.9697V558.03H134.697V500.303Z" fill="black"/>
</g>
<defs>
<clipPath id="clip0_1_3137">
<rect width="635" height="635" fill="white"/>
</clipPath>
</defs>
</svg>
