<svg width="996" height="251" viewBox="0 0 996 251" fill="none" xmlns="http://www.w3.org/2000/svg">
<path d="M934.55 250.354C641.806 135.88 353.756 135.987 61.2249 250.354C75.7341 208.48 84.0554 187.516 102.779 146.069C63.5185 125.212 43.0349 115.557 0.574219 98.2206C331.245 -32.5755 664.583 -32.6288 995.254 98.2206C952.793 115.61 932.309 125.212 893.049 146.069C911.772 187.569 920.094 208.48 934.603 250.354H934.55Z" fill="#243C80"/>
<path d="M142.193 140.58L152.502 170.84L142.528 173.639L135.521 142.452L142.193 140.58ZM134.389 125.466C135.962 125.025 137.387 125.182 138.666 125.938C139.932 126.649 140.773 127.746 141.189 129.229C141.58 130.622 141.426 131.973 140.727 133.284C140.016 134.55 138.874 135.404 137.302 135.845C135.729 136.286 134.288 136.158 132.977 135.459C131.653 134.716 130.796 133.648 130.405 132.255C129.989 130.772 130.159 129.392 130.915 128.113C131.659 126.79 132.817 125.907 134.389 125.466Z" fill="white"/>
<path d="M165.327 156.075L153.566 108.508L173.137 103.669C177.35 102.627 181.12 102.416 184.446 103.036C187.817 103.645 190.632 105.016 192.89 107.15C195.148 109.283 196.708 112.094 197.571 115.583C198.433 119.071 198.363 122.285 197.359 125.225C196.344 128.12 194.487 130.622 191.788 132.732C189.123 134.785 185.684 136.332 181.471 137.374L166.793 141.003L169.743 136.019L174.161 153.891L165.327 156.075ZM196.45 148.38L180.155 134.094L189.6 131.758L205.964 146.028L196.45 148.38ZM169.978 136.971L164.995 133.732L179.265 130.204C183.161 129.24 185.876 127.68 187.409 125.522C188.988 123.353 189.408 120.774 188.669 117.784C187.918 114.748 186.345 112.662 183.948 111.524C181.597 110.374 178.473 110.281 174.577 111.245L160.307 114.773L163.173 109.449L169.978 136.971Z" fill="white"/>
<path d="M222.937 113.157L246.807 108.296L248.302 115.635L224.432 120.496L222.937 113.157ZM227.814 133.595L254.907 128.077L256.43 135.553L220.419 142.887L210.641 94.873L245.691 87.7346L247.214 95.2111L221.08 100.534L227.814 133.595Z" fill="white"/>
<path d="M293.599 129.979C289.913 130.573 286.385 130.527 283.012 129.842C279.679 129.103 276.659 127.817 273.953 125.984C271.286 124.098 269.062 121.738 267.282 118.906C265.502 116.073 264.322 112.86 263.743 109.266C263.163 105.672 263.274 102.251 264.073 99.0026C264.873 95.7539 266.27 92.8345 268.263 90.2443C270.249 87.608 272.712 85.4384 275.651 83.7355C278.584 81.9866 281.916 80.8114 285.648 80.2098C289.61 79.5711 293.338 79.6793 296.832 80.5341C300.318 81.3429 303.406 82.9015 306.094 85.2098L301.169 91.605C299.114 89.9983 296.929 88.9087 294.615 88.3363C292.294 87.7178 289.866 87.6128 287.332 88.0213C284.798 88.4297 282.539 89.2194 280.553 90.3903C278.613 91.5538 276.983 93.022 275.662 94.7949C274.386 96.5603 273.478 98.5502 272.937 100.765C272.442 102.971 272.395 105.319 272.796 107.807C273.197 110.295 273.979 112.508 275.142 114.448C276.352 116.38 277.84 117.984 279.605 119.259C281.416 120.527 283.426 121.408 285.633 121.904C287.886 122.391 290.279 122.431 292.813 122.022C295.347 121.614 297.622 120.774 299.639 119.504C301.649 118.187 303.373 116.421 304.812 114.203L311.508 118.796C309.674 121.786 307.232 124.236 304.184 126.145C301.136 128.055 297.607 129.333 293.599 129.979Z" fill="white"/>
<path d="M326.191 124.534L319.944 75.9337L328.969 74.7734L335.217 123.373L326.191 124.534Z" fill="white"/>
<path d="M376.347 119.585C372.631 119.942 369.112 119.671 365.79 118.772C362.511 117.821 359.58 116.345 356.996 114.344C354.454 112.291 352.386 109.794 350.79 106.853C349.195 103.913 348.223 100.631 347.874 97.0072C347.526 93.3839 347.854 89.9768 348.86 86.7859C349.866 83.5949 351.446 80.7707 353.601 78.3131C355.751 75.809 358.347 73.8012 361.39 72.2896C364.428 70.7316 367.828 69.7716 371.591 69.4097C375.586 69.0255 379.299 69.3715 382.731 70.4479C386.159 71.4777 389.141 73.2303 391.676 75.7056L386.352 81.7732C384.404 80.0384 382.294 78.8115 380.021 78.0925C377.744 77.327 375.328 77.0671 372.773 77.3129C370.218 77.5586 367.913 78.2023 365.856 79.244C363.846 80.2812 362.125 81.6422 360.693 83.327C359.308 85.0074 358.274 86.9352 357.593 89.1105C356.958 91.2812 356.761 93.6208 357.002 96.1293C357.243 98.6377 357.883 100.897 358.92 102.907C360.003 104.912 361.386 106.608 363.066 107.993C364.793 109.374 366.741 110.382 368.912 111.017C371.13 111.648 373.516 111.84 376.07 111.595C378.625 111.349 380.95 110.657 383.044 109.517C385.133 108.332 386.966 106.679 388.544 104.558L394.933 109.569C392.912 112.436 390.319 114.725 387.155 116.436C383.991 118.146 380.388 119.196 376.347 119.585Z" fill="white"/>
<path d="M409.155 116.164L406.378 67.2431L415.463 66.7274L417.804 107.961L443.383 106.509L443.819 114.197L409.155 116.164Z" fill="white"/>
<path d="M448.827 113.883L470.054 64.5208L479.012 64.3707L501.95 112.994L492.431 113.153L472.724 69.3067L476.364 69.2458L458.206 113.726L448.827 113.883ZM458.786 102.375L461.116 95.1947L487.572 94.7517L490.141 101.85L458.786 102.375Z" fill="white"/>
<path d="M550.26 114.306L551.116 94.9351L552.897 100.619L533.191 64.5045L542.912 64.9338L558.724 94.0099L553.27 93.7689L571.724 66.2064L580.675 66.6018L557.862 100.838L560.207 95.3366L559.352 114.708L550.26 114.306Z" fill="white"/>
<path d="M637.258 121.451C633.453 121.047 630.014 120.072 626.94 118.525C623.917 116.937 621.341 114.904 619.211 112.425C617.085 109.9 615.536 107.037 614.562 103.836C613.587 100.635 613.292 97.2251 613.677 93.6055C614.061 89.9858 615.066 86.7136 616.69 83.7888C618.315 80.864 620.429 78.4135 623.032 76.4373C625.686 74.4196 628.679 72.9775 632.009 72.1109C635.344 71.198 638.914 70.9435 642.719 71.3476C646.849 71.7861 650.49 72.8532 653.642 74.5488C656.841 76.2493 659.439 78.5197 661.437 81.3598L655.138 86.3225C653.437 84.2178 651.52 82.6064 649.386 81.4881C647.303 80.3284 644.939 79.6082 642.294 79.3273C639.742 79.0563 637.331 79.2227 635.061 79.8264C632.791 80.4301 630.786 81.4139 629.046 82.7777C627.306 84.1416 625.884 85.8208 624.78 87.8155C623.723 89.8151 623.062 92.0678 622.796 94.5737C622.534 97.0332 622.711 99.3515 623.324 101.528C623.984 103.71 625.019 105.674 626.43 107.419C627.845 109.118 629.575 110.499 631.621 111.561C633.667 112.623 635.99 113.291 638.588 113.567C641.001 113.824 643.361 113.699 645.667 113.193C648.025 112.645 650.321 111.575 652.555 109.982L656.989 117.281C654.22 119.052 651.085 120.291 647.584 120.999C644.134 121.665 640.693 121.816 637.258 121.451ZM648.553 115.189L650.489 96.9511L659.051 97.8602L656.989 117.281L648.553 115.189Z" fill="white"/>
<path d="M666.96 124.013L696.116 78.8781L704.974 80.2232L719.488 131.988L710.076 130.559L697.951 84.0422L701.55 84.5886L676.234 125.421L666.96 124.013ZM678.697 114.325L682.191 107.634L708.351 111.606L709.702 119.033L678.697 114.325Z" fill="white"/>
<path d="M730.718 134.057L740.278 85.9987L747.624 87.4599L770.403 130.46L766.764 129.736L774.125 92.7312L782.981 94.4928L773.422 142.551L766.076 141.09L743.297 98.09L746.936 98.8138L739.575 135.819L730.718 134.057Z" fill="white"/>
<path d="M784.331 144.86L817.481 102.573L826.18 104.72L835.912 157.593L826.67 155.312L818.838 107.883L822.372 108.755L793.437 147.108L784.331 144.86ZM796.902 136.283L800.992 129.938L826.681 136.28L827.349 143.799L796.902 136.283Z" fill="white"/>
<path d="M851.091 145.17L858.325 113.174L868.299 115.974L857.763 147.042L851.091 145.17ZM849.94 162.223C848.368 161.782 847.21 160.9 846.466 159.576C845.723 158.253 845.553 156.872 845.956 155.434C846.36 153.997 847.217 152.928 848.528 152.23C849.851 151.487 851.299 151.336 852.872 151.777C854.444 152.218 855.58 153.094 856.279 154.405C856.99 155.671 857.143 157.023 856.74 158.461C856.336 159.898 855.495 160.995 854.217 161.751C852.938 162.507 851.513 162.665 849.94 162.223Z" fill="white"/>
</svg>
