<svg width="59" height="59" viewBox="0 0 59 59" fill="none" xmlns="http://www.w3.org/2000/svg">
<path d="M58.4182 29.2091C58.4182 45.3445 45.3397 58.4182 29.2091 58.4182C13.0785 58.4182 0 45.3445 0 29.2091C0 13.0832 13.0785 0 29.2091 0C45.3397 0 58.4182 13.0832 58.4182 29.2091ZM29.9929 9.65786C23.5744 9.65786 19.4806 12.3617 16.2659 17.1672C15.8495 17.7898 15.9888 18.6294 16.5857 19.082L20.6725 22.1808C21.2856 22.6457 22.159 22.5351 22.6353 21.9309C24.7393 19.2622 26.182 17.7147 29.3844 17.7147C31.7905 17.7147 34.7666 19.2633 34.7666 21.5965C34.7666 23.3603 33.3105 24.2662 30.9348 25.5981C28.1642 27.1513 24.498 29.0844 24.498 33.9203V34.3914C24.498 35.1719 25.1308 35.8047 25.9113 35.8047H32.5069C33.2874 35.8047 33.9203 35.1719 33.9203 34.3914V34.2344C33.9203 30.8822 43.7178 30.7426 43.7178 21.6713C43.7178 14.8399 36.6317 9.65786 29.9929 9.65786ZM29.2091 38.867C26.2217 38.867 23.7913 41.2973 23.7913 44.2848C23.7913 47.2721 26.2217 49.7026 29.2091 49.7026C32.1966 49.7026 34.6269 47.2721 34.6269 44.2848C34.6269 41.2973 32.1966 38.867 29.2091 38.867Z" fill="#014029"/>
</svg>
