<svg width="59" height="59" viewBox="0 0 59 59" fill="none" xmlns="http://www.w3.org/2000/svg">
<path d="M29.2091 0C13.077 0 0 13.077 0 29.2091C0 45.3413 13.077 58.4182 29.2091 58.4182C45.3413 58.4182 58.4182 45.3413 58.4182 29.2091C58.4182 13.077 45.3413 0 29.2091 0ZM38.9011 42.1177C38.4418 42.5747 37.9601 43.054 37.5691 43.4462C37.2169 43.7995 36.9684 44.2353 36.8424 44.7076C36.6645 45.3743 36.5208 46.0479 36.2806 46.6945L34.2324 52.2125C32.6117 52.5658 30.9346 52.7649 29.2091 52.7649V49.5401C29.4082 48.0537 28.3093 45.2694 26.5438 43.5039C25.8371 42.7973 25.4402 41.8385 25.4402 40.8386V37.0685C25.4402 35.6976 24.7017 34.4373 23.5016 33.7742C21.8091 32.8379 19.4017 31.5294 17.7528 30.699C16.4007 30.0183 15.1499 29.1514 14.0251 28.1373L13.9309 28.0525C13.1265 27.3265 12.4124 26.5063 11.8038 25.6098C10.699 23.988 8.89936 21.3203 7.72982 19.5866C10.1407 14.2277 14.4856 9.92404 19.8846 7.58613L22.7124 9.00065C23.9656 9.62723 25.4402 8.7168 25.4402 7.31524V5.98434C26.3813 5.8324 27.3388 5.73582 28.3128 5.69931L31.646 9.03245C32.3821 9.76857 32.3821 10.9617 31.646 11.6978L31.0936 12.249L29.8757 13.4668C29.5083 13.8343 29.5083 14.4314 29.8757 14.7989L30.4281 15.3513C30.7956 15.7187 30.7956 16.3159 30.4281 16.6834L29.4859 17.6256C29.309 17.8022 29.0692 17.9013 28.8193 17.9012H27.7604C27.5155 17.9012 27.2799 17.9966 27.1032 18.1685L25.9349 19.3051C25.7917 19.4446 25.6965 19.6259 25.663 19.823C25.6296 20.0201 25.6596 20.2227 25.7488 20.4016L27.585 24.0751C27.8982 24.7017 27.4424 25.439 26.7428 25.439H26.0786C25.8513 25.439 25.6322 25.3566 25.4614 25.2082L24.3684 24.2589C24.1211 24.0443 23.8222 23.8978 23.501 23.8338C23.1799 23.7698 22.8477 23.7904 22.537 23.8938L18.8658 25.1175C18.5855 25.2109 18.3418 25.3902 18.169 25.6299C17.9963 25.8697 17.9035 26.1577 17.9035 26.4531C17.9035 26.9866 18.2051 27.4731 18.6821 27.7122L19.987 28.3646C21.0953 28.9194 22.3179 29.2079 23.5569 29.2079C24.796 29.2079 26.2175 32.4221 27.3258 32.9769H35.1876C36.1875 32.9769 37.1451 33.3738 37.8529 34.0804L39.4653 35.6928C40.1389 36.3667 40.5172 37.2805 40.5171 38.2333C40.5168 38.9553 40.3739 39.6701 40.0966 40.3367C39.8193 41.0033 39.413 41.6086 38.9011 42.1177ZM49.1137 31.3586C48.4318 31.1878 47.837 30.7697 47.4472 30.1843L45.3295 27.0078C45.0196 26.5437 44.8543 25.9982 44.8543 25.4402C44.8543 24.8822 45.0196 24.3367 45.3295 23.8726L47.6368 20.4122C47.91 20.0035 48.2846 19.6714 48.7251 19.4523L50.2538 18.6879C51.8462 21.8586 52.7649 25.4249 52.7649 29.2091C52.7649 30.2303 52.6777 31.2302 52.5505 32.2172L49.1137 31.3586Z" fill="#243C80"/>
</svg>
