<svg width="1080" height="1920" viewBox="0 0 1080 1920" fill="none" xmlns="http://www.w3.org/2000/svg">
<g clip-path="url(#clip0_39_2)">
<rect width="1080" height="1920" fill="white"/>
<path d="M251.095 2080.05C255.285 2032.9 336.105 1975.46 255.645 1982.68C290.545 1994 326.965 1969.84 258.675 1946.96C322.405 1911.94 325.445 1851.48 246.535 1837.12C295.095 1786.34 255.635 1724.02 196.465 1756.59C213.155 1713.28 166.115 1731.75 166.115 1731.75C166.115 1731.75 201.015 1684.57 181.285 1654.22C161.555 1623.87 111.485 1670.14 111.485 1670.14C111.485 1670.14 120.585 1601.11 72.035 1660.29C72.035 1640.56 72.035 1582.9 38.655 1585.15C5.27497 1587.4 2.23495 1631.45 2.23495 1631.45C-11.425 1587.45 -73.635 1601.1 -69.085 1683.04C-67.565 1649.66 -158.615 1636 -117.645 1748.29C-147.995 1705.8 -276.975 1768.33 -211.725 1878.4C-240.555 1878.4 -223.865 1896.62 -223.865 1896.62C-223.865 1896.62 -278.495 1909.14 -223.865 1959.21C-317.945 1946.95 -313.395 2066.59 -216.275 2053.99C-272.415 2087.62 -219.315 2146.08 -181.375 2094C-181.375 2094 -191.635 2150.17 -142.985 2156.5C-94.415 2162.82 -87.395 2103.77 -87.375 2103.59C-88.155 2110.17 -72.625 2124.98 -68.555 2128.85C-31.225 2164.32 13.175 2133.61 7.15497 2087.1C13.955 2139.71 95.965 2134.28 92.595 2078.17C92.595 2078.17 108.395 2119.9 138.675 2078.17C153.155 2139.13 207.135 2102.27 207.135 2102.27C207.135 2102.27 247.365 2128.64 251.095 2080.03V2080.05Z" fill="#6FAF46"/>
<path d="M53.645 1725.64C53.645 1710.11 53.645 1664.73 27.375 1666.5C1.10503 1668.27 -1.28497 1702.94 -1.28497 1702.94C-6.03497 1687.64 -20.585 1683.57 -33.595 1687.89" stroke="#36604D" stroke-width="2.25" stroke-linecap="round" stroke-linejoin="round"/>
<path d="M-169.685 1897.31C-192.375 1897.31 -179.235 1911.65 -179.235 1911.65C-179.235 1911.65 -222.225 1921.5 -179.235 1960.91C-253.285 1951.26 -249.695 2045.42 -173.265 2035.5C-217.455 2061.97 -175.655 2107.98 -145.795 2066.99C-145.795 2066.99 -153.865 2111.2 -115.585 2116.18C-77.3551 2121.16 -71.8351 2074.68 -71.8151 2074.54C-72.4251 2079.72 -60.2051 2091.38 -57.0051 2094.42C-27.6251 2122.33 7.31487 2098.17 2.58487 2061.56C7.93487 2102.96 72.4849 2098.69 69.8249 2054.53C69.8249 2054.53 82.2549 2087.37 106.085 2054.53C117.485 2102.51 159.965 2073.5 159.965 2073.5C159.965 2073.5 191.625 2094.26 194.565 2056C197.855 2018.89 261.475 1973.68 198.145 1979.37C225.615 1988.28 254.275 1969.27 200.535 1951.26C250.695 1923.7 253.085 1876.11 190.985 1864.81C229.205 1824.84 198.155 1775.8 151.575 1801.43C164.715 1767.34 127.685 1781.88 127.685 1781.88C127.685 1781.88 155.155 1744.75 139.625 1720.86C124.095 1696.97 84.6849 1733.39 84.6849 1733.39" stroke="#36604D" stroke-width="2.25" stroke-linecap="round" stroke-linejoin="round"/>
<path d="M1146.36 2064.22C1150.55 2017.07 1231.37 1959.63 1150.91 1966.85C1185.81 1978.17 1222.23 1954.01 1153.94 1931.13C1217.67 1896.11 1220.71 1835.64 1141.8 1821.28C1190.36 1770.5 1150.9 1708.19 1091.73 1740.76C1108.42 1697.45 1061.38 1715.91 1061.38 1715.91C1061.38 1715.91 1096.28 1668.74 1076.55 1638.39C1056.82 1608.04 1006.75 1654.31 1006.75 1654.31C1006.75 1654.31 1015.85 1585.28 967.295 1644.46C967.295 1624.73 967.295 1567.07 933.915 1569.32C900.535 1571.57 897.495 1615.62 897.495 1615.62C883.835 1571.62 821.625 1585.27 826.175 1667.21C827.695 1633.83 736.645 1620.17 777.615 1732.46C747.265 1689.97 618.285 1752.5 683.535 1862.57C654.705 1862.57 671.395 1880.78 671.395 1880.78C671.395 1880.78 616.765 1893.31 671.395 1943.38C577.315 1931.12 581.865 2050.75 678.985 2038.15C622.845 2071.78 675.945 2130.24 713.885 2078.16C713.885 2078.16 703.625 2134.34 752.275 2140.67C800.845 2146.99 807.865 2087.93 807.885 2087.75C807.105 2094.33 822.635 2109.14 826.705 2113.01C864.035 2148.48 908.435 2117.77 902.415 2071.26C909.215 2123.87 991.225 2118.45 987.855 2062.34C987.855 2062.34 1003.66 2104.07 1033.94 2062.34C1048.42 2123.3 1102.4 2086.44 1102.4 2086.44C1102.4 2086.44 1142.63 2112.81 1146.36 2064.2V2064.22Z" fill="#6FAF46"/>
<path d="M847.245 1689.97C844.475 1697.92 842.435 1708.48 847.835 1726.05C837.565 1708.66 789.985 1695.14 795.225 1745.07" stroke="#36604D" stroke-width="2.25" stroke-linecap="round" stroke-linejoin="round"/>
<path d="M953.075 1709.48C953.075 1693.95 953.075 1648.57 926.805 1650.34C900.535 1652.11 898.145 1686.77 898.145 1686.77C893.395 1671.47 878.845 1667.41 865.835 1671.73" stroke="#36604D" stroke-width="2.25" stroke-linecap="round" stroke-linejoin="round"/>
<path d="M729.735 1881.14C707.045 1881.14 720.185 1895.49 720.185 1895.49C720.185 1895.49 677.195 1905.34 720.185 1944.75C646.135 1935.1 649.725 2029.26 726.155 2019.34C681.965 2045.81 723.765 2091.82 753.625 2050.83C753.625 2050.83 745.555 2095.03 783.835 2100.01C822.065 2104.99 827.585 2058.52 827.605 2058.38C826.995 2063.56 839.215 2075.22 842.415 2078.26C871.795 2106.17 906.735 2082 902.005 2045.39C907.355 2086.79 971.905 2082.53 969.245 2038.37C969.245 2038.37 981.675 2071.21 1005.51 2038.37C1016.91 2086.35 1059.39 2057.34 1059.39 2057.34C1059.39 2057.34 1091.05 2078.1 1093.99 2039.84C1097.28 2002.73 1160.9 1957.52 1097.57 1963.21C1125.04 1972.12 1153.7 1953.11 1099.96 1935.1C1150.12 1907.54 1152.51 1859.94 1090.41 1848.64C1128.63 1808.67 1097.58 1759.63 1051 1785.26C1064.14 1751.17 1027.11 1765.72 1027.11 1765.72C1027.11 1765.72 1054.58 1728.59 1039.05 1704.7C1023.52 1680.81 984.105 1717.23 984.105 1717.23" stroke="#36604D" stroke-width="2.25" stroke-linecap="round" stroke-linejoin="round"/>
<path d="M680.645 2101.97C678.585 2054.68 751.145 1987.1 672.335 2004.85C708.425 2011.48 741.345 1982.73 670.635 1969.04C729.205 1925.93 724.245 1865.6 644.135 1861.75C685.585 1805.01 638.265 1748.44 583.895 1788.51C594.735 1743.38 550.545 1767.89 550.545 1767.89C550.545 1767.89 578.925 1716.53 555.375 1689.04C531.825 1661.55 488.275 1714.01 488.275 1714.01C488.275 1714.01 488.215 1644.39 447.865 1709.44C445.265 1689.89 437.675 1632.73 404.875 1639.36C372.075 1645.99 374.875 1690.06 374.875 1690.06C355.545 1648.24 295.665 1669.97 310.975 1750.59C308.085 1717.3 216.035 1715.75 271.435 1821.66C235.755 1783.54 116.135 1862.51 195.305 1963.02C166.725 1966.82 185.675 1982.68 185.675 1982.68C185.675 1982.68 133.175 2002.28 193.915 2044.73C99.0452 2044.97 119.305 2162.96 213.915 2137.68C162.685 2178.41 223.035 2229.37 253.785 2172.74C253.785 2172.74 251.015 2229.77 300.065 2229.64C349.045 2229.51 348.225 2170.05 348.225 2169.87C348.325 2176.5 365.665 2189.13 370.205 2192.43C411.875 2222.67 451.845 2186.39 439.765 2141.08C453.435 2192.33 534.015 2176.15 523.285 2120.98C523.285 2120.98 544.445 2160.26 568.965 2114.91C591.345 2173.43 639.995 2129.78 639.995 2129.78C639.995 2129.78 683.345 2150.63 680.645 2101.95V2101.97Z" fill="#AFCE30"/>
<path d="M501.805 1816.51C501.115 1779.99 472.305 1807.42 472.305 1807.42C472.305 1807.42 483.735 1762.67 460.345 1746.41C436.955 1730.15 414.195 1778.74 414.195 1778.74" stroke="#5A9539" stroke-width="2.25" stroke-miterlimit="10" stroke-linecap="round"/>
<path d="M666.275 2325.32C670.465 2278.17 751.285 2220.73 670.825 2227.95C705.725 2239.27 742.145 2215.11 673.855 2192.23C737.585 2157.21 740.625 2096.75 661.715 2082.39C710.275 2031.61 670.815 1969.29 611.645 2001.86C628.335 1958.55 581.295 1977.02 581.295 1977.02C581.295 1977.02 616.195 1929.84 596.465 1899.49C576.735 1869.14 526.665 1915.41 526.665 1915.41C526.665 1915.41 535.765 1846.38 487.215 1905.56C487.215 1885.83 487.215 1828.17 453.835 1830.42C420.455 1832.67 417.415 1876.72 417.415 1876.72C403.755 1832.72 341.545 1846.37 346.095 1928.31C347.615 1894.93 256.565 1881.27 297.535 1993.56C267.185 1951.07 138.205 2013.6 203.455 2123.67C174.625 2123.67 191.315 2141.89 191.315 2141.89C191.315 2141.89 136.685 2154.41 191.315 2204.48C97.2351 2192.22 101.785 2311.86 198.905 2299.26C142.765 2332.89 195.865 2391.35 233.805 2339.27C233.805 2339.27 223.545 2395.44 272.195 2401.77C320.765 2408.09 327.785 2349.04 327.805 2348.86C327.025 2355.44 342.555 2370.25 346.625 2374.12C383.955 2409.59 428.355 2378.88 422.335 2332.38C429.135 2384.99 511.145 2379.56 507.775 2323.45C507.775 2323.45 523.575 2365.18 553.855 2323.45C568.335 2384.41 622.315 2347.55 622.315 2347.55C622.315 2347.55 662.545 2373.92 666.275 2325.31V2325.32Z" fill="#6FAF46"/>
<path d="M245.585 2266.99C243.525 2219.7 316.085 2152.13 237.275 2169.88C273.365 2176.51 306.285 2147.75 235.575 2134.06C294.145 2090.95 289.185 2030.62 209.075 2026.77C250.525 1970.03 203.205 1913.46 148.835 1953.53C159.675 1908.4 115.485 1932.91 115.485 1932.91C115.485 1932.91 143.865 1881.55 120.315 1854.06C96.7651 1826.57 53.2151 1879.03 53.2151 1879.03C53.2151 1879.03 53.1551 1809.41 12.8051 1874.46C10.2051 1854.91 2.61506 1797.76 -30.1849 1804.39C-62.9849 1811.02 -60.185 1855.08 -60.185 1855.08C-79.515 1813.26 -139.395 1835 -124.085 1915.62C-126.975 1882.33 -219.025 1880.77 -163.625 1986.68C-199.305 1948.56 -318.925 2027.53 -239.755 2128.04C-268.335 2131.84 -249.385 2147.7 -249.385 2147.7C-249.385 2147.7 -301.885 2167.3 -241.145 2209.75C-336.025 2209.99 -315.755 2327.98 -221.145 2302.7C-272.375 2343.43 -212.025 2394.39 -181.275 2337.76C-181.275 2337.76 -184.045 2394.8 -134.995 2394.67C-86.0149 2394.54 -86.8349 2335.08 -86.8349 2334.9C-86.7349 2341.53 -69.3949 2354.15 -64.8549 2357.45C-23.185 2387.69 16.785 2351.42 4.70505 2306.11C18.375 2357.36 98.955 2341.17 88.225 2286C88.225 2286 109.375 2325.29 133.905 2279.94C156.285 2338.46 204.935 2294.8 204.935 2294.8C204.935 2294.8 248.285 2315.65 245.585 2266.97V2266.99Z" fill="#AFCE30"/>
<path d="M66.735 1981.53C66.045 1945.01 37.235 1972.44 37.235 1972.44C37.235 1972.44 48.665 1927.69 25.275 1911.43C1.885 1895.17 -20.875 1943.76 -20.875 1943.76" stroke="#5A9539" stroke-width="2.25" stroke-miterlimit="10" stroke-linecap="round"/>
<path d="M1153.23 2266.88C1151.17 2219.59 1223.73 2152 1144.92 2169.75C1181.01 2176.38 1213.93 2147.64 1143.22 2133.95C1201.79 2090.84 1196.83 2030.5 1116.72 2026.65C1158.17 1969.91 1110.85 1913.34 1056.48 1953.41C1067.32 1908.28 1023.14 1932.79 1023.14 1932.79C1023.14 1932.79 1051.51 1881.43 1027.96 1853.94C1004.41 1826.45 960.865 1878.91 960.865 1878.91C960.865 1878.91 960.805 1809.29 920.455 1874.34C917.855 1854.79 910.265 1797.63 877.465 1804.26C844.665 1810.89 847.465 1854.96 847.465 1854.96C828.135 1813.14 768.255 1834.88 783.565 1915.5C780.675 1882.21 688.625 1880.65 744.025 1986.56C708.345 1948.44 588.725 2027.42 667.895 2127.93C639.315 2131.73 658.265 2147.58 658.265 2147.58C658.265 2147.58 605.765 2167.19 666.505 2209.64C571.625 2209.88 591.895 2327.86 686.505 2302.58C635.275 2343.31 695.625 2394.28 726.375 2337.65C726.375 2337.65 723.605 2394.67 772.655 2394.54C821.635 2394.41 820.815 2334.95 820.815 2334.77C820.915 2341.4 838.255 2354.03 842.795 2357.33C884.465 2387.57 924.435 2351.29 912.355 2305.98C926.025 2357.23 1006.6 2341.06 995.875 2285.89C995.875 2285.89 1017.02 2325.16 1041.55 2279.81C1063.93 2338.33 1112.58 2294.69 1112.58 2294.69C1112.58 2294.69 1155.93 2315.54 1153.23 2266.86V2266.88Z" fill="#AFCE30"/>
<path d="M974.395 1981.41C973.705 1944.89 944.895 1972.32 944.895 1972.32C944.895 1972.32 956.325 1927.57 932.935 1911.31C909.545 1895.05 886.785 1943.64 886.785 1943.64" stroke="#5A9539" stroke-width="2.25" stroke-miterlimit="10" stroke-linecap="round"/>
<path d="M116.138 1075.43L130.818 1083.37C132.978 1084.54 132.988 1087.63 130.848 1088.82L116.248 1096.9C115.728 1097.19 115.298 1097.62 115.018 1098.14L107.078 1112.82C105.908 1114.98 102.818 1114.99 101.628 1112.85L93.5475 1098.25C93.2575 1097.73 92.8275 1097.3 92.3075 1097.02L77.6275 1089.08C75.4675 1087.91 75.4575 1084.82 77.5975 1083.63L92.1975 1075.55C92.7175 1075.26 93.1475 1074.83 93.4275 1074.31L101.368 1059.63C102.538 1057.47 105.628 1057.46 106.818 1059.6L114.898 1074.2C115.188 1074.72 115.618 1075.15 116.138 1075.43Z" fill="#5A9539"/>
<path d="M223.435 1554.92L231.085 1559.05C232.205 1559.66 232.215 1561.27 231.095 1561.89L223.485 1566.1C223.215 1566.25 222.995 1566.47 222.845 1566.75L218.715 1574.4C218.105 1575.52 216.495 1575.53 215.875 1574.41L211.665 1566.8C211.515 1566.53 211.295 1566.31 211.015 1566.16L203.365 1562.03C202.245 1561.42 202.235 1559.81 203.355 1559.19L210.965 1554.98C211.235 1554.83 211.455 1554.61 211.605 1554.33L215.735 1546.68C216.345 1545.56 217.955 1545.55 218.575 1546.67L222.785 1554.28C222.935 1554.55 223.155 1554.77 223.435 1554.92Z" fill="#5A9539"/>
<path d="M995.425 329.685L1010.11 337.625C1012.27 338.795 1012.28 341.885 1010.14 343.075L995.535 351.155C995.015 351.445 994.585 351.875 994.305 352.395L986.365 367.075C985.195 369.235 982.105 369.245 980.915 367.105L972.835 352.505C972.545 351.985 972.115 351.555 971.595 351.275L956.915 343.335C954.755 342.165 954.745 339.075 956.885 337.885L971.485 329.805C972.005 329.515 972.435 329.085 972.715 328.565L980.655 313.885C981.825 311.725 984.915 311.715 986.105 313.855L994.185 328.455C994.475 328.975 994.905 329.405 995.425 329.685Z" fill="#95BF56"/>
<path d="M951.915 627.085L959.565 631.215C960.685 631.825 960.695 633.435 959.575 634.055L951.965 638.265C951.695 638.415 951.475 638.635 951.325 638.915L947.195 646.565C946.585 647.685 944.975 647.695 944.355 646.575L940.145 638.965C939.995 638.695 939.775 638.475 939.495 638.325L931.845 634.195C930.725 633.585 930.715 631.975 931.835 631.355L939.445 627.145C939.715 626.995 939.935 626.775 940.085 626.495L944.215 618.845C944.825 617.725 946.435 617.715 947.055 618.835L951.265 626.445C951.415 626.715 951.635 626.935 951.915 627.085Z" fill="#5A9539"/>
<path d="M56.5451 719.055L64.1951 723.185C65.3151 723.795 65.3251 725.405 64.2051 726.025L56.5951 730.235C56.3251 730.385 56.1051 730.605 55.9551 730.885L51.8251 738.535C51.2151 739.655 49.6051 739.665 48.9851 738.545L44.7751 730.935C44.6251 730.665 44.4051 730.445 44.1251 730.295L36.4751 726.165C35.3551 725.555 35.3451 723.945 36.4651 723.325L44.0751 719.115C44.3451 718.965 44.5651 718.745 44.7151 718.465L48.8451 710.815C49.4551 709.695 51.0651 709.685 51.6851 710.805L55.8951 718.415C56.0451 718.685 56.2651 718.905 56.5451 719.055Z" fill="#5A9539"/>
</g>
<defs>
<clipPath id="clip0_39_2">
<rect width="1080" height="1920" fill="white"/>
</clipPath>
</defs>
</svg>
